<svg width="46" height="46" viewBox="0 0 46 46" fill="none" xmlns="http://www.w3.org/2000/svg">
  <rect width="46" height="46" rx="14" fill="url(#paint0_linear_1_2)"/>
  <path d="M23 11.5C23.8284 11.5 24.5 12.1716 24.5 13V21.5H33C33.8284 21.5 34.5 22.1716 34.5 23C34.5 23.8284 33.8284 24.5 33 24.5H24.5V33C24.5 33.8284 23.8284 34.5 23 34.5C22.1716 34.5 21.5 33.8284 21.5 33V24.5H13C12.1716 24.5 11.5 23.8284 11.5 23C11.5 22.1716 12.1716 21.5 13 21.5H21.5V13C21.5 12.1716 22.1716 11.5 23 11.5Z" fill="white"/>
  <defs>
    <linearGradient id="paint0_linear_1_2" x1="5" y1="4" x2="39" y2="41" gradientUnits="userSpaceOnUse">
      <stop stop-color="#FF60BB"/>
      <stop offset="1" stop-color="#8B5CFF"/>
    </linearGradient>
  </defs>
</svg>
