<svg width="1200" height="360" viewBox="0 0 1200 360" fill="none" xmlns="http://www.w3.org/2000/svg">
  <rect width="1200" height="360" rx="28" fill="url(#paint0_linear_4_2)"/>
  <rect x="62" y="95" width="102" height="62" rx="14" fill="#B7BEDC" fill-opacity="0.72"/>
  <rect x="422" y="110" width="110" height="76" rx="14" fill="#B7BEDC" fill-opacity="0.72"/>
  <rect x="662" y="82" width="110" height="58" rx="14" fill="#B7BEDC" fill-opacity="0.72"/>
  <rect x="866" y="174" width="140" height="92" rx="14" fill="#B7BEDC" fill-opacity="0.72"/>
  <rect x="996" y="44" width="84" height="56" rx="14" fill="#B7BEDC" fill-opacity="0.72"/>
  <path d="M31 58C189 5 363 35 520 80C680 126 857 117 1160 72" stroke="white" stroke-opacity="0.75" stroke-width="10" stroke-linecap="round"/>
  <path d="M111 214C245 190 377 199 505 228C673 266 842 259 1108 193" stroke="white" stroke-opacity="0.75" stroke-width="10" stroke-linecap="round"/>
  <path d="M279 23L408 332" stroke="white" stroke-opacity="0.75" stroke-width="10" stroke-linecap="round"/>
  <path d="M612 16L697 344" stroke="white" stroke-opacity="0.75" stroke-width="10" stroke-linecap="round"/>
  <defs>
    <linearGradient id="paint0_linear_4_2" x1="600" y1="0" x2="600" y2="360" gradientUnits="userSpaceOnUse">
      <stop stop-color="#D8DBE8"/>
      <stop offset="1" stop-color="#CCD0E2"/>
    </linearGradient>
  </defs>
</svg>
